<?xml version="1.0" encoding="utf-8"?>
<!-- Generator: Adobe Illustrator 24.0.2, SVG Export Plug-In . SVG Version: 6.00 Build 0)  -->
<svg version="1.1" id="Layer_1" xmlns="http://www.w3.org/2000/svg" xmlns:xlink="http://www.w3.org/1999/xlink" x="0px" y="0px"
	 viewBox="0 0 283.46 283.46" style="enable-background:new 0 0 283.46 283.46;" xml:space="preserve">
<style type="text/css">
	.st0{fill:#010101;}
</style>
<g>
	<g>
		<path class="st0" d="M144.53,147.04c-1.65,2.69-4.92,7.04-9.72,12.93c-4.74,5.81-8.81,10.15-11.98,12.79
			c-0.88,0.69-2.73,1.67-6.54,2.39c-3.57,0.68-9.52,1.02-17.69,1.02s-11.02-0.77-11.9-1.11c0,0-0.38-0.51-0.38-2.28
			c0-0.21,0.03-1.08,0.46-3.56c0.34-1.97,0.71-3.81,1.1-5.48l7.18-31.05h7.96c2.76,0,5.2,0.3,7.27,0.9c1.39,0.4,2.43,1.17,3.29,2.42
			c0.02,0.04,0.57,0.88,1.19,3.98c0.49,2.47,0.75,4.89,0.75,7.19v8.51h16.05l14.59-63.06h-16.84l-1.28,3.36
			c-0.82,2.15-2.27,4.87-4.3,8.09c-2.51,3.98-4.04,5.51-4.7,6.06c-1.77,1.43-3.68,2.55-5.68,3.32c-1.31,0.51-3.86,1.11-8.57,1.11
			h-5.53l8.96-38.77h13.28c2.04,0,8.29,0.04,11.37,0.13c3.43,0.1,5.21,0.38,6.23,0.63c2.1,0.46,4.45,2.54,6.8,6.01
			c2.72,4.02,4.46,8.49,5.17,13.29l0.66,4.46h15.34l9.77-42.62H51.57l-3.74,16.07l5.62,0.82c6.27,0.92,9.19,1.99,10.53,2.73
			c1.08,0.6,1.08,0.94,1.08,1.24c-0.01,0.26-0.06,0.64-0.13,1.13c-0.1,0.67-0.27,1.56-0.54,2.67l-20.38,88.16
			c-0.31,1.36-0.83,2.5-1.6,3.51c-0.57,0.75-1.48,1.32-2.78,1.76c-0.6,0.2-2.1,0.59-5.45,0.96c-2.8,0.31-4.9,0.5-6.25,0.55
			l-3.98,0.16l-3.91,16.78h127.88l27.42-49.73h-29.29L144.53,147.04z"/>
	</g>
	<polygon class="st0" points="183.56,87.43 152.66,140.96 182.35,140.96 150.93,197.68 119.91,197.68 103.71,225.74 263.41,225.74 	
		"/>
</g>
</svg>
